<?xml version="1.0" encoding="UTF-8" standalone="no"?>
<!-- Created with Inkscape (http://www.inkscape.org/) -->

<svg
   xmlns:dc="http://purl.org/dc/elements/1.1/"
   xmlns:cc="http://creativecommons.org/ns#"
   xmlns:rdf="http://www.w3.org/1999/02/22-rdf-syntax-ns#"
   xmlns:svg="http://www.w3.org/2000/svg"
   xmlns="http://www.w3.org/2000/svg"
   version="1.1"
   width="500"
   height="260"
   id="svg3087">
  <title
     id="title3093">89 FM a Rádio Rock</title>
  <metadata
     id="metadata3089">
    <rdf:RDF>
      <cc:Work
         rdf:about="">
        <dc:format>image/svg+xml</dc:format>
        <dc:type
           rdf:resource="http://purl.org/dc/dcmitype/StillImage" />
        <dc:title>89 FM a Rádio Rock</dc:title>
      </cc:Work>
    </rdf:RDF>
  </metadata>
  <defs
     id="defs3091" />
  <g
     transform="matrix(0.63433546,0,0,0.6377377,0,2.600774e-6)"
     id="g3095">
    <g
       transform="translate(-49.47025,-289.01888)"
       id="g3097">
      <g
         id="g3099">
        <path
           d="m 107.49225,289.26625 79.9415,0 c 34.46625,0 58.02125,18.035 58.02125,61.24 l 0,96.78375 c 0,22.55375 -6.92125,41.05875 -22.2925,51.625 16.3325,9.5625 22.225,27.29625 22.225,49.63125 l 0,90.74625 c 0,31.001 -13.1325,53.80863 -57.23875,57.4175 l -78.86312,0 c -34.000505,0 -58.695255,-18.19 -58.695255,-58.69875 l 0,-86.72125 c 0,-22.1325 8.9355,-42.855 25.6255,-52.48875 C 60.159125,487.87875 49.47025,468.83875 49.47025,447.29 l 0,-96.78375 c 0,-33.6825 26.109375,-61.24 58.022,-61.24"
           id="path3101"
           style="fill:#000000;fill-opacity:1;fill-rule:evenodd;stroke:none" />
        <path
           d="m 146.5875,356.43375 0,0 c 8.5,0 15.45625,9.39625 15.45625,20.88125 l 0,56.37875 c 0,11.485 -6.95625,20.8825 -15.45625,20.8825 l 0,0 c -8.5,0 -15.455,-9.3975 -15.455,-20.8825 l 0,-56.37875 c 0,-11.485 6.955,-20.88125 15.455,-20.88125"
           id="path3103"
           style="fill:#f9ec2b;fill-opacity:1;fill-rule:evenodd;stroke:none" />
        <path
           d="m 148.13375,528.37625 0,0 c 8.5,0 15.455,9.39625 15.455,20.88125 l 0,56.37875 c 0,11.48537 -6.955,20.88225 -15.455,20.88225 l 0,0 c -8.50125,0 -15.45625,-9.39688 -15.45625,-20.88225 l 0,-56.37875 c 0,-11.485 6.955,-20.88125 15.45625,-20.88125"
           id="path3105"
           style="fill:#01aae1;fill-opacity:1;fill-rule:evenodd;stroke:none" />
      </g>
      <g
         id="g3107">
        <path
           d="m 312.4175,289.45625 87.18875,-0.19 c 35.565,-0.0763 59.87,21.9775 59.87,61.45 0,41.82375 -0.0138,83.64875 -0.0288,125.47375 l 0,0 c 0,179.86912 1.99,166.72937 0,179.86912 -1.99,13.13963 -14.4075,29.34863 -40.43,40.14063 l -110.89125,0 C 278.8775,691.01813 261.11,675.54938 258.465,649.06587 l 0,-41.01649 87.59125,-0.13438 0.63,6.99562 c 0.095,12.36038 22.13125,19.78426 28.24625,1.84575 l 0.185,-111.19262 c -16.31125,18.69875 -34.5625,29.61125 -56.27,26.64375 l 0,-10e-4 c -33.88,-5.749 -49.9725,-27.60775 -58.8325,-56.0165 l 0.001,0 c -2.0185,-9.435 -0.836,-58.2275 -0.836,-67.13625 l 0,-65.4475 c 0,-28.3025 20.30875,-54.07875 53.2375,-54.15"
           id="path3109"
           style="fill:#000000;fill-opacity:1;fill-rule:evenodd;stroke:none" />
        <path
           d="m 357.17375,358.4775 0,0 c 8.5,0 15.455,9.39625 15.455,20.88125 l 0,56.38 c 0,11.485 -6.955,20.88125 -15.455,20.88125 l 0,0 c -8.50125,0 -15.45625,-9.39625 -15.45625,-20.88125 l 0,-56.38 c 0,-11.485 6.955,-20.88125 15.45625,-20.88125"
           id="path3111"
           style="fill:#ec2a2d;fill-opacity:1;fill-rule:evenodd;stroke:none" />
      </g>
      <g
         id="g3113"
         style="fill:#000000">
        <g
           id="g3115"
           style="fill:#000000">
          <path
             d="m 254.58875,583.2 8.68945,0 0,-28.32125 -8.68945,0 0,28.32125 z"
             id="path3117"
             style="fill:#000000;fill-opacity:1;fill-rule:evenodd;stroke:none" />
          <path
             d="m 331.99,583.2 8.68945,0 0,-28.32125 -8.68945,0 0,28.32125 z"
             id="path3119"
             style="fill:#000000;fill-opacity:1;fill-rule:evenodd;stroke:none" />
          <path
             d="m 271.74125,541.59125 c 0,56.555 0,56.5775 0,56.5775 l 9.97125,0 0,-27.65 5.69875,0 0,-7.04625 -5.705,0 0,-13.2475 5.8825,0 -0.11125,-8.66 -15.73625,0.0262"
             id="path3121"
             style="fill:#000000;fill-opacity:1;fill-rule:evenodd;stroke:none" />
          <path
             d="m 291.84125,541.52125 c 0,56.6325 0,56.6325 0,56.6325 l 10.02625,0 -0.0437,-15.075 2.86375,13.06375 6.02875,-0.009 3.15875,-13.095 -0.17125,14.99375 9.905,0 -0.045,-56.1025 -13.2425,-0.40875 -2.89875,19.96625 -2.7775,-19.96625 -12.80375,0"
             id="path3123"
             style="fill:#000000;fill-opacity:1;fill-rule:evenodd;stroke:none" />
        </g>
      </g>
    </g>
    <g
       transform="matrix(1.0969925,0,0,1.0969925,-95.036235,-308.30289)"
       id="g3125"
       style="fill:#000000;fill-opacity:1">
      <path
         d="m 803.27875,443.74 -31.73375,-0.38 -13.2225,70.0325 -0.0525,0 -0.9725,7.78625 -1.21375,0.2675 0,-77.565 -32.805,0 0,208.58163 32.805,0 0,-105.78038 1.21375,0 14.09375,105.78038 33.77625,0 -21.62625,-121.61913 2.7875,-14.30125 10e-4,0 16.94875,-72.8025"
         id="path3127"
         style="fill:#000000;fill-opacity:1;fill-rule:nonzero;stroke:none" />
      <path
         d="m 719.26,485.0825 c 0,-18.88125 -2.21375,-30.8175 -6.64375,-35.805 -4.42875,-4.9875 -14.94875,-7.48 -31.56,-7.48 -16.45375,0 -26.89375,2.40375 -31.32375,7.21375 -4.42875,4.81 -6.64375,16.83375 -6.64375,36.07125 l 0,123.711 c 0,19.0605 2.215,31.084 6.64375,36.07125 4.43,4.80963 15.03,7.21437 31.79875,7.21437 15.9775,0 26.3475,-2.32137 30.84875,-7.21437 4.675,-5.083 6.88,-17.19 6.88,-36.07125 l 0,-42.0135 -32.98375,0 0,47.35775 c 0,3.38325 -0.35625,5.745 -1.0675,7.081 -0.71125,1.3355 -2.01625,2.0025 -3.915,2.0025 -3.63875,0 -5.45875,-3.02687 -5.45875,-9.0835 l 0,-134.1315 c 0,-6.235 1.66125,-9.35125 4.98375,-9.35125 3.63875,0 5.4575,3.11625 5.4575,9.35125 l 0,32.86375 32.98375,0 0,-27.7875"
         id="path3129"
         style="fill:#000000;fill-opacity:1;fill-rule:nonzero;stroke:none" />
      <path
         d="m 593.21302,481.66875 c 0,-6.325 1.7025,-9.48625 5.105,-9.48625 3.7275,0 5.59125,3.16125 5.59125,9.48625 l 0,132.87862 c 0,3.37113 -0.36375,5.72163 -1.09375,7.05226 -0.72875,1.33049 -2.06625,1.99562 -4.01125,1.99562 -3.7275,0 -5.59125,-3.01562 -5.59125,-9.04788 l 0,-132.87862 z m 44.48875,33.34125 0,-28.19125 c 0,-19.15375 -2.27,-31.26125 -6.8075,-36.3225 -4.53875,-5.05875 -15.315,-7.59 -32.3325,-7.59 -16.855,0 -27.5525,2.44 -32.09,7.31875 -4.5375,4.88 -6.8075,17.07875 -6.8075,36.59375 l 0,122.40688 c 0,18.98237 2.27,30.9575 6.8075,35.92425 4.5375,4.79012 15.39625,7.18512 32.57625,7.18512 16.36875,0 26.90375,-2.395 31.60375,-7.18512 4.7,-5.1445 7.05,-17.11963 7.05,-35.92425 l 0,-94.21563"
         id="path3131"
         style="fill:#000000;fill-opacity:1;fill-rule:nonzero;stroke:none" />
      <path
         d="m 469.78875,441.92402 0,210.76413 36.39875,0 0,-91.53038 c 0.35,0 0.83,-0.045 1.44125,-0.135 0.61,-0.0913 1.09125,-0.13625 1.44,-0.13625 3.1425,0 5.36875,0.77 6.6775,2.30875 1.31,1.53875 1.96375,4.11875 1.96375,7.74 l 0,81.75288 36.1375,0 0,-74.96288 c 0,-10.32 -1.26625,-17.97 -3.79625,-22.95 -2.5325,-4.97875 -6.76625,-8.64625 -12.70125,-11 6.285,-3.07875 10.5625,-7.06125 12.83125,-11.95 0.8725,-1.9925 1.615,-4.6625 2.22625,-8.0125 0.5725,-3.13875 0.9525,-6.795 1.1425,-10.96875 l 0.035,0 0.2625,-25.565 c 0.195,-19.05625 -2.6625,-31.29125 -7.85625,-36.83375 -5.28125,-5.635 -15.79875,-8.52125 -31.685,-8.52125 l -44.5175,0 z m 36.39875,70.92 0,-41.78125 2.3575,0 c 3.66625,0 6.11,0.68625 7.3325,2.06 1.22125,1.375 1.8325,5.36125 1.8325,11.9575 l 0,32.0775 c 0,4.5275 -0.5675,7.56 -1.7025,9.09875 -1.13375,1.54 -3.36,2.30875 -6.6775,2.30875 -0.17375,0 -0.65375,-0.045 -1.44,-0.13625 -0.785,-0.09 -1.3525,-0.135 -1.7025,-0.135 l 0,-15.45"
         id="path3133"
         style="fill:#000000;fill-opacity:1;fill-rule:nonzero;stroke:none" />
      <path
         d="m 664.40125,289.605 0,141.72125 26.67625,0 c 9.88,0 16.22375,-1.72125 19.03125,-5.16625 2.9125,-3.445 4.36875,-11.93375 4.36875,-25.46625 l 0,-80.64 c 0,-13.28625 -1.45625,-21.6525 -4.36875,-25.0975 -2.8075,-3.5675 -9.20375,-5.35125 -19.1875,-5.35125 l -26.52,0 z m 21.68375,48.16375 0,-28.6025 1.56,0 c 2.08,0 3.45875,0.43 4.13375,1.29125 0.67625,0.86125 1.01375,3.1375 1.01375,6.82875 l 0,86.54375 c 0,3.56875 -0.31125,5.7825 -0.935,6.64375 -0.625,0.86125 -1.925,1.2925 -3.9,1.2925 l -1.8725,0 0,-73.9975"
         id="path3135"
         style="fill:#000000;fill-opacity:1;fill-rule:nonzero;stroke:none" />
      <path
         d="m 618.04875,286.3975 c 31.15625,0 31.15625,0 31.15625,0 l -0.19625,-5.35375 -30.96,5.35375"
         id="path3137"
         style="fill:#000000;fill-opacity:1;fill-rule:evenodd;stroke:none" />
      <path
         d="m 636.67375,379.43375 -7.60875,0 2.035,-39.57625 1.5275,-20.3225 0.6475,0 1.40875,21.175 1.99,38.72375 z m -23.44,-44.0975 -0.035,0 -8.25625,95.73 21.695,0 1.61875,-31.7875 9.39,0 1.61875,31.7875 21.85625,0 -8.34625,-93.1225 -10e-4,-0.005 -0.2325,-2.6025 -0.035,0 -4.66,-45.38375 -29.95125,0 -4.66125,45.38375"
         id="path3139"
         style="fill:#000000;fill-opacity:1;fill-rule:nonzero;stroke:none" />
      <path
         d="m 718.63375,290.0175 0,141.1125 22.9375,0 0,-141.1125 -22.9375,0"
         id="path3141"
         style="fill:#000000;fill-opacity:1;fill-rule:nonzero;stroke:none" />
      <path
         d="m 501.675,379.43375 -7.61,0 2.035,-39.57625 1.5275,-20.3225 0.6475,0 1.40875,21.175 1.99125,38.72375 z m -23.44125,-44.0975 -0.035,0 -8.25625,95.73 21.695,0 1.61875,-31.7875 9.39,0 1.61875,31.7875 21.85625,0 -8.34625,-93.1225 -10e-4,-0.005 -0.2325,-2.6025 -0.035,0 -4.66,-45.38375 -29.95125,0 -4.66125,45.38375"
         id="path3143"
         style="fill:#000000;fill-opacity:1;fill-rule:nonzero;stroke:none" />
      <path
         d="m 544.485,289.9525 0,141.11375 24.52875,0 0,-61.2825 c 0.235,0 0.55875,-0.03 0.97,-0.09 0.41125,-0.0613 0.735,-0.0913 0.97125,-0.0913 2.11625,0 3.61625,0.515 4.49875,1.545 0.8825,1.03125 1.32375,2.75875 1.32375,5.1825 l 0,54.73625 24.35125,0 0,-50.19 c 0,-6.91 -0.8525,-12.03125 -2.55875,-15.365 -1.70625,-3.335 -4.55875,-5.78875 -8.5575,-7.36625 4.235,-2.06 7.1175,-4.7275 8.64625,-8.00125 0.5875,-1.3325 1.0875,-3.12125 1.5,-5.36375 0.38625,-2.10125 0.6425,-4.55 0.77,-7.34375 l 0.0237,0 0.17625,-17.11625 c 0.1313,-12.75995 -1.7937,-20.9512 -5.2937,-24.6612 -3.55875,-3.7725 -10.64625,-5.70625 -21.35125,-5.70625 l -29.99875,0 z m 24.52875,47.48375 0,-27.97375 1.5875,0 c 2.47,0 4.1175,0.46 4.94125,1.37875 0.82375,0.92125 1.235,3.59 1.235,8.0075 l 0,21.47625 c 0,3.03 -0.3825,5.06125 -1.1475,6.09125 -0.76375,1.03125 -2.26375,1.54625 -4.5,1.54625 -0.11625,0 -0.44,-0.03 -0.97,-0.0913 -0.52875,-0.0612 -0.91125,-0.0913 -1.14625,-0.0913 l 0,-10.34375"
         id="path3145"
         style="fill:#000000;fill-opacity:1;fill-rule:nonzero;stroke:none" />
      <path
         d="m 768.21,315.9275 c 0,-4.27 1.14125,-6.40375 3.42375,-6.40375 2.49875,0 3.7475,2.13375 3.7475,6.40375 l 0,89.695 c 0,2.275 -0.24375,3.8625 -0.7325,4.76 -0.48875,0.89875 -1.385,1.3475 -2.69,1.3475 -2.49875,0 -3.74875,-2.03625 -3.74875,-6.1075 l 0,-89.695 z m 29.82625,22.505 0,-19.02875 c 0,-12.93 -1.52125,-21.1025 -4.5625,-24.5175 -3.0425,-3.415 -10.26875,-5.12375 -21.6775,-5.12375 -11.30125,0 -18.47125,1.64625 -21.515,4.94 -3.04125,3.29375 -4.5625,11.5275 -4.5625,24.70125 l 0,82.62625 c 0,12.81375 1.52125,20.89625 4.5625,24.25 3.04375,3.2325 10.32375,4.85 21.84125,4.85 10.97375,0 18.03625,-1.6175 21.1875,-4.85 3.15125,-3.47375 4.72625,-11.55625 4.72625,-24.25 l 0,-63.5975"
         id="path3147"
         style="fill:#000000;fill-opacity:1;fill-rule:nonzero;stroke:none" />
    </g>
  </g>
</svg>
